<svg width="113" height="27" viewBox="0 0 113 27" fill="none" xmlns="http://www.w3.org/2000/svg">
<path d="M7.2061 15.2679C7.2061 16.1716 6.87834 16.8762 6.22281 17.3819C5.56729 17.8876 4.67764 18.1405 3.55389 18.1405C2.33648 18.1405 1.40002 17.9836 0.74449 17.6699V16.518C1.1659 16.696 1.62477 16.8364 2.12109 16.9395C2.61742 17.0425 3.10906 17.094 3.59603 17.094C4.39202 17.094 4.99136 16.9441 5.39404 16.6445C5.79672 16.3401 5.99806 15.9187 5.99806 15.3802C5.99806 15.0244 5.92548 14.7341 5.78033 14.5093C5.63986 14.2799 5.40106 14.0692 5.06394 13.8772C4.73149 13.6852 4.22346 13.4675 3.53984 13.224C2.58464 12.8822 1.90102 12.4772 1.48898 12.009C1.08162 11.5407 0.877936 10.9297 0.877936 10.1758C0.877936 9.38452 1.17526 8.75475 1.76992 8.28651C2.36457 7.81828 3.15121 7.58417 4.12981 7.58417C5.15056 7.58417 6.08937 7.77146 6.94623 8.14604L6.57399 9.18552C5.72648 8.82966 4.9024 8.65174 4.10172 8.65174C3.4696 8.65174 2.97562 8.78752 2.61976 9.0591C2.2639 9.33067 2.08598 9.7076 2.08598 10.1899C2.08598 10.5457 2.15153 10.8384 2.28263 11.0678C2.41374 11.2926 2.63381 11.5009 2.94284 11.6929C3.25656 11.8802 3.73416 12.0886 4.37563 12.318C5.45257 12.7019 6.19238 13.114 6.59506 13.5541C7.00242 13.9943 7.2061 14.5655 7.2061 15.2679ZM19.4565 8.65174C18.328 8.65174 17.436 9.02866 16.7805 9.78252C16.1297 10.5317 15.8043 11.5595 15.8043 12.8658C15.8043 14.2097 16.118 15.2491 16.7454 15.9843C17.3775 16.7147 18.2765 17.0799 19.4424 17.0799C20.1588 17.0799 20.9759 16.9512 21.8936 16.6936V17.7401C21.1819 18.007 20.304 18.1405 19.2598 18.1405C17.7474 18.1405 16.5792 17.6816 15.7551 16.7639C14.9357 15.8461 14.526 14.5421 14.526 12.8518C14.526 11.7936 14.7226 10.8665 15.116 10.0705C15.514 9.27449 16.0852 8.6611 16.8297 8.23033C17.5789 7.79955 18.4591 7.58417 19.4705 7.58417C20.5475 7.58417 21.4886 7.78082 22.294 8.17414L21.7883 9.19957C21.011 8.83435 20.2337 8.65174 19.4565 8.65174ZM31.0817 13.7297V18H29.8878V7.73166H32.7042C33.9637 7.73166 34.8932 7.9728 35.4925 8.45508C36.0965 8.93736 36.3985 9.66312 36.3985 10.6324C36.3985 11.9902 35.7102 12.908 34.3336 13.3856L37.1219 18H35.7102L33.2239 13.7297H31.0817ZM31.0817 12.7043H32.7182C33.561 12.7043 34.1791 12.5381 34.5724 12.2056C34.9657 11.8685 35.1624 11.3651 35.1624 10.6956C35.1624 10.0166 34.9611 9.52733 34.5584 9.22766C34.1604 8.92799 33.5189 8.77816 32.6339 8.77816H31.0817V12.7043ZM53.4459 12.8518C53.4459 14.4953 53.0292 15.7876 52.1958 16.7287C51.367 17.6699 50.2128 18.1405 48.7332 18.1405C47.2208 18.1405 46.0526 17.6793 45.2285 16.7568C44.4091 15.8297 43.9994 14.5234 43.9994 12.8377C43.9994 11.1661 44.4114 9.87148 45.2355 8.95375C46.0596 8.03133 47.2302 7.57012 48.7472 7.57012C50.2222 7.57012 51.374 8.03835 52.2028 8.97482C53.0316 9.91128 53.4459 11.2036 53.4459 12.8518ZM45.2636 12.8518C45.2636 14.2424 45.5586 15.2983 46.1485 16.0194C46.7432 16.7358 47.6047 17.094 48.7332 17.094C49.871 17.094 50.7302 16.7358 51.3108 16.0194C51.8914 15.303 52.1817 14.2471 52.1817 12.8518C52.1817 11.4705 51.8914 10.424 51.3108 9.71228C50.7349 8.99589 49.8804 8.63769 48.7472 8.63769C47.6094 8.63769 46.7432 8.99823 46.1485 9.71931C45.5586 10.4357 45.2636 11.4799 45.2636 12.8518ZM61.4963 18V7.73166H62.6903V16.9184H67.2204V18H61.4963ZM74.7229 18V7.73166H75.9169V16.9184H80.447V18H74.7229Z" fill="white"/>
<path d="M97.25 20.25L104 13.5L97.25 6.75" stroke="#F2F2F2" stroke-linecap="round"/>
</svg>
